HIERARCHY
ROOT Root
{
	OFFSET 0.00000 0.00000 0.00000
	CHANNELS 6 Xposition Yposition Zposition Zrotation Xrotation Yrotation
	JOINT Hips
	{
		OFFSET 0 0 0	
		CHANNELS 3 Zrotation Xrotation Yrotation
		JOINT Spine
		{
			OFFSET 0 4 0	
			CHANNELS 3 Zrotation Xrotation Yrotation
			JOINT Spine1
			{
				OFFSET 0 19.4 0	
				CHANNELS 3 Zrotation Xrotation Yrotation
				JOINT Spine2
				{
					OFFSET 0 16.6 0	
					CHANNELS 3 Zrotation Xrotation Yrotation
					JOINT LeftCollar
					{
						OFFSET 0 10 0	
						CHANNELS 3 Zrotation Xrotation Yrotation
						JOINT LeftArm
						{
							OFFSET 15.6 -2 3	
							CHANNELS 3 Zrotation Xrotation Yrotation
							JOINT LeftForeArm
							{
								OFFSET 3.5 -27 -1	
								CHANNELS 3 Zrotation Xrotation Yrotation
								JOINT LeftHand
								{
									OFFSET 1 -27 1	
									CHANNELS 3 Zrotation Xrotation Yrotation
									End Site
									{
										OFFSET 0 -15 0
									}
								}
							}
						}
					}
					JOINT RightCollar
					{
						OFFSET 0 10 0	
						CHANNELS 3 Zrotation Xrotation Yrotation
						JOINT RightArm
						{
							OFFSET -15.6 -2 3	
							CHANNELS 3 Zrotation Xrotation Yrotation
							JOINT RightForeArm
							{
								OFFSET -3.5 -27 -1	
								CHANNELS 3 Zrotation Xrotation Yrotation
								JOINT RightHand
								{
									OFFSET -1 -27 1	
									CHANNELS 3 Zrotation Xrotation Yrotation
									End Site
									{
										OFFSET 0 -15 0
									}
								}
							}
						}
					}
					JOINT Neck
					{
						OFFSET 0 10 0	
						CHANNELS 3 Zrotation Xrotation Yrotation
						JOINT Head
						{
							OFFSET 0 12.7 3	
							CHANNELS 3 Zrotation Xrotation Yrotation
							End Site
							{
								OFFSET 0 12.7 3
							}
						}
					}
				}
			}
		}
	}
	JOINT LeftHip
	{
		OFFSET 0 0 0	
		CHANNELS 3 Zrotation Xrotation Yrotation
		JOINT LeftUpLeg
		{
			OFFSET 8.8 -6 0	
			CHANNELS 3 Zrotation Xrotation Yrotation
			JOINT LeftLeg
			{
				OFFSET 0 -39 2	
				CHANNELS 3 Zrotation Xrotation Yrotation
				JOINT LeftFoot
				{
					OFFSET 0 -43 -2	
					CHANNELS 3 Zrotation Xrotation Yrotation
					JOINT LeftFootFront
					{
						OFFSET 0 -7 8.5	
						CHANNELS 3 Zrotation Xrotation Yrotation
						End Site
						{
							OFFSET 0 -0.5 9
						}
					}
				}
				JOINT LeftHeel
				{
					OFFSET 0 -43 -2	
					CHANNELS 3 Zrotation Xrotation Yrotation
					End Site
					{
						OFFSET 0 -7.5 -5
					}
				}
			}
		}
	}
	JOINT RightHip
	{
		OFFSET 0 0 0	
		CHANNELS 3 Zrotation Xrotation Yrotation
		JOINT RightUpLeg
		{
			OFFSET -8.8 -6 0	
			CHANNELS 3 Zrotation Xrotation Yrotation
			JOINT RightLeg
			{
				OFFSET 0 -39 2	
				CHANNELS 3 Zrotation Xrotation Yrotation
				JOINT RightFoot
				{
					OFFSET 0 -43 -2	
					CHANNELS 3 Zrotation Xrotation Yrotation
					JOINT RightFootFront
					{
						OFFSET 0 -7 8.5	
						CHANNELS 3 Zrotation Xrotation Yrotation
						End Site
						{
							OFFSET 0 -0.5 9
						}
					}
				}
				JOINT RightHeel
				{
					OFFSET 0 -43 -2	
					CHANNELS 3 Zrotation Xrotation Yrotation
					End Site
					{
						OFFSET 0 -7.5 -5
					}
				}
			}
		}
	}
}
MOTION
Frames: 9
Frame Time: 0.025
0 95.531 0 -0 0 -0 -0.01979 -0.34342 -0.51588 -0.55576 -0.10477 0.37704 -0.55576 -0.10477 0.37704 -0.46688 -0.087761 0.31679 -0 0 -0 0.94102 1.6221 0.15515 2.0782 -1.0242 3.9605 0.90882 -1.5087 0.28201 -0 0 -0 -1.2777 1.8701 -5.7752 2.1628 -0.30646 0.37576 -1.0304 -0.72045 1.1831 0.91803 0.68807 0.23235 0.44731 0.60539 0.55051 -0.01979 -0.34342 -0.51588 -0.94159 -0.53076 -2.6949 -0.042528 0.21203 2.4481 1.1168 0.46388 0.17356 -0 0 1.9072e-08 -0 0 -0 -0.01979 -0.34342 -0.51588 -1.0638 -0.72787 2.6109 0.90757 1.457 43.174 1.075 -1.5863 -43.611 -0 0 3.6321e-08 -0 0 -0 
-0.0077652 95.53 -0.0042188 -0 0 -0 -0.018619 -0.32644 -0.53055 -0.55443 -0.10599 0.3846 -0.55443 -0.10599 0.3846 -0.46577 -0.088782 0.32313 -0 0 -0 0.94268 1.6267 0.13834 2.0831 -1.0331 3.9607 0.89732 -1.5169 0.29247 -0 0 -0 -1.2781 1.8728 -5.7737 2.1592 -0.30771 0.36671 -1.0297 -0.73605 1.1834 0.9217 0.6932 0.22443 0.45199 0.60962 0.54896 -0.018619 -0.32644 -0.53055 -0.93755 -0.53836 -2.6669 -0.035107 0.21457 2.4509 1.1046 0.45168 0.15731 -0.0031765 0.003986 -0.00036066 -0 0 -0 -0.018619 -0.32644 -0.53055 -1.0579 -0.73915 2.6217 0.97963 1.3051 43.13 1.1185 -1.4246 -43.567 -0.0055517 -0.0036217 0.005691 -0 0 -0 
-0.014934 95.529 -0.0068763 -0 0 -0 -0.014838 -0.30004 -0.55188 -0.55408 -0.10926 0.3946 -0.55408 -0.10926 0.3946 -0.46548 -0.091525 0.33154 -0 0 -0 0.94693 1.635 0.11448 2.0889 -1.0447 3.9619 0.88393 -1.5108 0.29141 -0 0 -0 -1.2766 1.8782 -5.7693 2.1547 -0.30859 0.35211 -1.0285 -0.74481 1.1855 0.9287 0.7029 0.21432 0.45912 0.61675 0.54731 -0.014838 -0.30004 -0.55188 -0.93428 -0.55266 -2.6274 -0.025401 0.22105 2.4564 1.0851 0.43666 0.13326 -0.0037318 0.0050384 -0.00044282 -0 0 -0 -0.014838 -0.30004 -0.55188 -1.0525 -0.75679 2.6381 1.0647 1.1483 43.096 1.1453 -1.2502 -43.529 -0.0076398 -0.0052138 0.0079308 -0 0 -0 
-0.0213 95.528 -0.0075703 -0 0 -0 -0.0078301 -0.26921 -0.57349 -0.55502 -0.11508 0.4034 -0.55502 -0.11508 0.4034 -0.46627 -0.096403 0.33893 -0 0 -0 0.95185 1.6486 0.086785 2.0929 -1.0565 3.9658 0.87365 -1.4931 0.28104 -0 0 -0 -1.2748 1.8874 -5.7611 2.1513 -0.30729 0.33113 -1.0274 -0.75121 1.1909 0.93721 0.71832 0.20536 0.46665 0.62746 0.54584 -0.0078301 -0.26921 -0.57349 -0.93402 -0.57166 -2.5881 -0.017078 0.23046 2.4635 1.0662 0.41991 0.10797 -0.0030461 0.0045587 -0.00028645 -0 0 -0 -0.0078301 -0.26921 -0.57349 -1.0516 -0.77711 2.6544 1.1005 1.0872 43.096 1.1387 -1.1818 -43.518 -0.0077216 -0.0053787 0.0076617 -0 0 -0 
-0.02668 95.527 -0.0059304 -0 0 -0 -0.0017237 -0.23882 -0.58988 -0.55402 -0.11967 0.40736 -0.55402 -0.11967 0.40736 -0.46544 -0.10026 0.34226 -0 0 -0 0.95215 1.6635 0.062615 2.0961 -1.0708 3.97 0.86677 -1.4663 0.26298 -0 0 -0 -1.2778 1.8924 -5.7471 2.1486 -0.3028 0.30571 -1.026 -0.75824 1.1967 0.94273 0.73493 0.20157 0.47287 0.6403 0.54545 -0.0017237 -0.23882 -0.58988 -0.93128 -0.58845 -2.5541 -0.012678 0.23864 2.4698 1.0503 0.4021 0.083844 -0.0041684 0.004719 -3.8752e-05 -0 0 -0 -0.0017237 -0.23882 -0.58988 -1.051 -0.79542 2.6598 1.0922 1.0816 43.117 1.1259 -1.1862 -43.521 -0.0071707 -0.004368 0.0058409 -0 0 -0 
-0.030856 95.525 -0.0016561 -0 0 -0 -0.00061619 -0.21284 -0.59698 -0.55028 -0.11846 0.40468 -0.55028 -0.11846 0.40468 -0.46229 -0.099242 0.34001 -0 0 -0 0.95058 1.671 0.050822 2.0987 -1.0892 3.967 0.86314 -1.4471 0.2572 -0 0 -0 -1.2824 1.8848 -5.7315 2.1451 -0.29667 0.28262 -1.0257 -0.76509 1.2019 0.94553 0.74517 0.20428 0.47878 0.65154 0.5459 -0.00061619 -0.21284 -0.59698 -0.92162 -0.59946 -2.5264 -0.011834 0.24513 2.472 1.0348 0.38485 0.061119 -0.0059265 0.0045905 1.7664e-06 -0 0 -0 -0.00061619 -0.21284 -0.59698 -1.0468 -0.80767 2.6498 1.0707 1.0863 43.151 1.1164 -1.2085 -43.532 -0.0057325 -0.0022704 0.0035333 -0 0 -0 
-0.033754 95.524 0.0054618 -0 0 -0 -0.00055824 -0.1893 -0.59815 -0.54491 -0.1134 0.39668 -0.54491 -0.1134 0.39668 -0.45777 -0.095001 0.33329 -0 0 -0 0.94698 1.6719 0.053934 2.0995 -1.1088 3.9596 0.86198 -1.4336 0.26049 -0 0 -0 -1.2885 1.8702 -5.7145 2.1429 -0.29175 0.26067 -1.028 -0.77138 1.2091 0.94507 0.74968 0.21289 0.4829 0.66018 0.54772 -0.00055824 -0.1893 -0.59815 -0.91163 -0.60743 -2.5052 -0.012022 0.2509 2.4721 1.0192 0.36771 0.041116 -0.0067471 0.0047741 -3.1224e-05 -0 0 -0 -0.00055824 -0.1893 -0.59815 -1.0427 -0.81813 2.636 1.0421 1.0957 43.194 1.1124 -1.2391 -43.556 -0.002471 0.0009734 0.00070108 -0 0 -0 
-0.035523 95.522 0.015458 -0 0 -0 0.0022397 -0.16294 -0.60062 -0.53697 -0.10435 0.38627 -0.53697 -0.10435 0.38627 -0.4511 -0.087411 0.32453 -0 0 -0 0.93587 1.6598 0.066133 2.0981 -1.1281 3.9557 0.86386 -1.4189 0.25919 -0 0 -0 -1.304 1.844 -5.6956 2.1466 -0.2866 0.23866 -1.0314 -0.78074 1.2147 0.93719 0.74415 0.22617 0.48184 0.66205 0.5521 0.0022397 -0.16294 -0.60062 -0.9068 -0.61621 -2.494 -0.0095596 0.25692 2.4791 1.0026 0.34864 0.025342 -0.0062955 0.0049129 -0.00017209 -0 0 -0 0.0022397 -0.16294 -0.60062 -1.0417 -0.83322 2.6289 1.0108 1.1063 43.24 1.1154 -1.2717 -43.591 0.0021942 0.0050366 -0.0036023 -0 0 -0 
-0.036456 95.52 0.028262 -0 0 -0 0.0051944 -0.13276 -0.60544 -0.52836 -0.093741 0.37941 -0.52836 -0.093741 0.37941 -0.44386 -0.078507 0.31877 -0 0 -0 0.92656 1.6408 0.068468 2.0935 -1.1478 3.9528 0.86956 -1.4025 0.26079 -0 0 -0 -1.3206 1.8129 -5.6911 2.1546 -0.27538 0.22601 -1.0331 -0.79548 1.2116 0.92889 0.73082 0.23371 0.48093 0.65748 0.55373 0.0051944 -0.13276 -0.60544 -0.90159 -0.62529 -2.4879 -0.0051233 0.26259 2.4929 0.98391 0.32661 0.010174 -0.0053748 0.0050367 -0.00072343 -0 0 -0 0.0051944 -0.13276 -0.60544 -1.0415 -0.85192 2.6256 1.0024 1.0997 43.283 1.1202 -1.2771 -43.628 0.0058993 0.0080698 -0.0073795 -0 0 -0 
